<svg xmlns="http://www.w3.org/2000/svg" viewBox="0 0 1080 1080" width="1080" height="1080"><g transform="translate(98.0 185.0) rotate(0.0 234.5 395.5) scale(0.45666991236611487 0.4560392043816662)"><svg width="1027" height="1734.5" viewBox="0 0 1027 1734.5"><path d="M630.2 1478.1C551 1572 340.8 1579.7 351.8 1518c17.4-55.7 187.4-107.8 272.4-63.8zm-511-199.9c90.8-30.6 270.7 164 210 182.9-143 5-261-143-210-182.9z" fill="#5b2448"/><path d="m618.2 1528.5-.3.9c-11.2 40.2-23.9 76.5-24.3 77.6s-.1 0-.2 0h-.5c-9.6.3-115 2.3-106.9-33.9 0-.2-2.5-5.6-2.5-5.8 2.9-12.8 5.5-27 7.7-41.2.6-3.6 1.1-7.2 1.6-10.7.5-3.2.9-6.4 1.3-9.5.1-.9.2-1.8.4-2.7 1.5-11 2.7-21.5 3.6-30.8 1.1-11.5 1.8-21.2 2-27.8v-.6c.1-2.2 0-4.4-.1-6.6-2.9-34.3 133.3 34.4 135 35.6 0 0-13.4 43.2-16.8 55.5z" fill="#f4ada2"/><path d="M617.9 1529.5c-11.2 40.2-23.9 76.5-24.3 77.6s-.1 0-.2 0h-.5c-9.6.3-115 2.3-106.9-33.9 0-.2-2.5-5.6-2.5-5.8 2.9-12.8 5.5-27 7.7-41.2z" fill="#66b0f0"/><path d="m612.8 1547.2-124.7-2.6c-.5 2.8-1 5.5-1.6 8.3l123.8 2.5c.8-2.6 1.7-5.4 2.5-8.2zm-129.3 20.2s-23.4 102.7-33.9 160.7c0 0 179.4 7.3 243.2 2 34.6-2.9 51.2-15.9 59.1-25.2v-.1c0-.1-.1-.1-.1-.2-1.8-4.4-21.3-47.7-84.1-79.3-9.8-4.9-41.3-18.7-77.5-23-24.8-2.9-45.9-1.8-61.8-7.1-20.1-7-33.5-28.2-44.9-27.8z" fill="#fff"/><path d="M484.3 1565.7c17.7 4.2 24.3 20.9 45.9 28.8 14 5.1 53.7 2.2 82.6 10 1 .3 2.1.6 3.1.8.3.1.6.2.9.2 6.1 1.7 12 3.5 17.6 5.5l3.3 1.2c1.6.6 3.1 1.1 4.7 1.7 1.2.5 2.4.9 3.6 1.4 1 .4 1.9.8 2.9 1.2.6.2 1.2.5 1.8.7l4.2 1.8h.1c.5.2 1 .4 1.4.6 1.6.7 3.2 1.4 4.8 2.2.3.2.7.3 1 .5 1.9.9 3.7 1.8 5.6 2.7 1.8.9 3.5 1.8 5.2 2.7.6.3 1.3.7 1.9 1 1.9 1.1 3.8 2.1 5.7 3.2l1.3.8c.4.3.9.5 1.3.8l2.4 1.5c.9.5 1.7 1.1 2.6 1.6.4.3.8.5 1.2.8 2.8 1.8 5.5 3.6 8.1 5.5l3.3 2.4c.7.5 1.4 1 2.1 1.6.3.3.7.5 1 .8 1.1.8 2.2 1.7 3.2 2.5.3.2.5.4.8.6 1.6 1.3 3.2 2.6 4.7 3.9.3.3.6.5.9.8.6.5 1.1 1 1.7 1.5.3.3.6.6.9.8.6.5 1.1 1 1.7 1.6.3.3.6.5.8.8l.8.8.8.8c.8.8 1.6 1.5 2.3 2.3l.8.8c.2.3.5.5.7.8l1.5 1.5c.2.2.5.5.7.8.5.5.9 1 1.4 1.5s.9 1 1.3 1.5.9 1 1.3 1.5c.2.3.5.5.7.8.8.9 1.6 1.8 2.4 2.8.4.5.8.9 1.1 1.4s.7.9 1.1 1.4.7.9 1.1 1.3c3.2 4.1 5.8 7.9 7.9 11.2.2.3.3.5.5.8-55.1 38.9-110.5 18.1-142.3 4.7-27.4-11.5-34.9 3.6-57.3-3.6-18.7-6-22-21.7-45.8-24.5-22.2-2.7-41.9 11.5-41.9 11.5s9.3-52.5 26.6-114.6z" fill="#5b2448"/><path d="M468.5 1650.4c-1 0-1.9-.1-2.9-.2-1.3-.3-2.2-1.5-2-2.9s1.5-2.2 2.9-2c.2 0 12.8 2 29.6-12.3 1.5-1.2 2.8-2.4 4.1-3.6 12.3-10.6 19.7-17 44-17.9 1.4 0 2.5 1 2.6 2.4 0 1.4-1 2.5-2.4 2.6-22.6.8-28.7 6.1-40.9 16.7-1.3 1.1-2.7 2.3-4.2 3.6-14 12-25.6 13.6-30.8 13.6z" fill="#fff"/><path d="M677.6 1715.8c-30.3 0-56.7-11.1-74.3-18.5-14.5-6.1-23.5-4.6-32.1-3.1-7.4 1.3-15.2 2.6-25.7-.8-8.3-2.7-13.8-7-19.1-11.3-7-5.6-13.6-10.9-26.7-12.4-21.1-2.6-39.2 10.5-39.3 10.7-.9.7-2.2.5-2.9-.5-.7-.9-.5-2.2.4-2.9.8-.6 19.5-14.2 42.3-11.4 14.2 1.7 21.6 7.6 28.8 13.3 5.2 4.2 10.2 8.1 17.8 10.6 9.6 3.1 16.5 1.9 23.8.7 9.3-1.6 18.9-3.2 34.4 3.3 14.5 6.1 36.4 15.3 61.1 17.7 28.5 2.7 54-4.2 77.8-21 1-.6 2.2-.4 2.9.6.6 1 .4 2.2-.6 2.9-23.6 16.5-47.1 22.1-68.6 22.1z" fill="#5b2448"/><path d="M496.6 1720.6c-15.3 0-27.3-7.4-27.3-16.9 0-9.4 12-16.9 27.3-16.9s27.3 7.4 27.3 16.9-12 16.9-27.3 16.9zm0-29.6c-12.6 0-23.2 5.8-23.2 12.7s10.6 12.7 23.2 12.7 23.2-5.8 23.2-12.7c-.1-6.8-10.7-12.7-23.2-12.7z" fill="#6d2a53"/><path d="M598.1 1734.5c-71.3 0-149.2-2.2-150.4-2.2-1.1 0-2-1-2-2.1v-.3c10.4-57.3 36-161.5 36.2-162.6.3-1.1 1.4-1.8 2.5-1.5s1.8 1.4 1.5 2.5c-.3 1-25.1 102.3-35.7 159.9 21.7.6 183.5 4.6 242.4-.3 17.8-1.5 42-6.8 56.9-23.6-3.4-7.5-23.5-47.7-82.8-77.5-.6-.3-1.2-.6-1.9-1-10.5-5.3-34.9-17.8-75.7-21-1.1-.1-2-1-2-2.2.1-1.1 1-2 2.2-2h.1c41.6 3.2 66.6 16 77.2 21.4.7.3 1.3.7 1.9.9 62.8 31.6 82.7 74.9 85 80.3 0 0 0 .1.1.1 0 .1.1.2.1.3v.1c.3.7.1 1.5-.4 2.1-15.7 18.6-41.6 24.4-60.5 26-21.6 2.1-57.2 2.7-94.7 2.7z" fill="#5b2448"/><path d="M583.2 1659.8c-3.4 0-6.2-2.8-6.2-6.2 0-1 .2-1.9.7-2.8.7-1.4 18-34.8 58.9-44.4 3.3-.8 6.7 1.3 7.5 4.6s-1.3 6.7-4.6 7.5c-35.1 8.2-50.5 37.6-50.7 37.9a6.37 6.37 0 0 1-5.6 3.4zm28.1 10.8c-3.4 0-6.2-2.8-6.2-6.2 0-1 .2-1.9.7-2.8.7-1.4 17.8-34.2 58.2-43.6 3.3-.8 6.7 1.2 7.5 4.6s-1.2 6.7-4.6 7.5h-.1c-34.6 8.1-49.8 36.9-50 37.2-1 2-3.1 3.3-5.5 3.3zm32.5 8.6c-3.4 0-6.2-2.8-6.2-6.2 0-1 .3-2 .7-2.9.6-1.2 16.3-29.6 53.2-37.7 3.3-.7 6.7 1.4 7.4 4.7s-1.4 6.7-4.7 7.4c-31.1 6.8-44.8 31.3-44.9 31.5-1.2 2-3.3 3.2-5.5 3.2z" fill="#ffcf2d"/><path d="M254.7 1517.1c-.3.2-.5.3-.8.5-34.4 20.9-67.1 38.1-68.2 38.6s0 0-.1-.1c-.1 0-.1-.1-.2-.2-.1 0-.1-.1-.1-.1-7-6.2-82.4-74-52.9-94.2.1-.1 2-5.6 2.1-5.7 10.4-7.1 21.6-15.4 32.5-23.9 2.8-2.1 5.5-4.3 8.2-6.5 2.4-1.9 4.8-3.9 7.2-5.8.7-.6 1.4-1.1 2-1.7 8.2-6.8 16-13.3 22.8-19.3 8.3-7.3 15.2-13.7 19.7-18.3l.4-.4c1.5-1.5 12.5-13.3 13.8-15 20.5-26 64.6 118.1 65 120-.1 0-40.9 25.7-51.4 32.1z" fill="#f4ada2"/><path d="M253.9 1517.6c-34.4 20.9-67.1 38.1-68.2 38.6s0 0-.1-.1c-.1 0-.1-.1-.2-.2-.1 0-.1-.1-.1-.1-7-6.2-82.4-74-52.9-94.2.1-.1 2-5.6 2.1-5.7 10.4-7.1 36.8-27.3 47.7-35.8z" fill="#66b0f0"/><path d="m231.6 1530.8-68.9-95.5c-2.1 1.6-4.3 3.3-6.4 4.9l68.2 94.7c2.4-1.4 4.8-2.7 7.1-4.1zm-97.3-74.9s-84 57-129.5 90.8c0 0 121.5 123.2 169.9 161.4 26.3 20.7 46.5 22.5 58.2 21.1v-.1c0-.1.1-.1.1-.2 1.6-4.3 16.4-47.6-7-111.2-3.7-9.9-16.8-40.3-39.4-67.2-15.5-18.4-31.1-31.5-38.8-45.7-9.8-18-5.2-41.8-13.5-48.9z" fill="#fff"/><path d="M136 1455.2c9.7 14.6 3.4 30.7 13.3 50.5 6.5 12.8 36.4 36.8 51.5 61.3.6.9 1.1 1.8 1.6 2.6.1.2.3.5.4.7 3.2 5.2 6.1 10.3 8.8 15.4.5 1 1.1 2 1.6 3 .7 1.4 1.5 2.9 2.2 4.3.6 1.1 1.1 2.2 1.6 3.3.4.9.9 1.8 1.3 2.7.3.6.5 1.1.8 1.7.6 1.4 1.2 2.7 1.8 4.1v.1c.2.5.4.9.6 1.4.7 1.6 1.3 3.1 1.9 4.7.1.3.3.7.4 1 .7 1.9 1.5 3.7 2.1 5.6.7 1.8 1.3 3.6 1.9 5.3.2.7.5 1.3.7 2 .7 2 1.3 4 1.9 6l.4 1.4c.1.5.3.9.4 1.4.3.9.5 1.8.7 2.6.3.9.5 1.9.7 2.8.1.4.2.9.3 1.3.8 3.1 1.5 6.2 2.1 9.2.3 1.3.5 2.5.7 3.8.2.8.3 1.7.4 2.5.1.4.1.8.2 1.2l.6 3.9c0 .3.1.6.1.9.3 2 .5 3.9.7 5.9 0 .4.1.8.1 1.1.1.7.1 1.5.2 2.2 0 .4.1.8.1 1.2.1.7.1 1.5.2 2.2 0 .4 0 .7.1 1.1 0 .4 0 .7.1 1.1s0 .7.1 1.1c.1 1.1.1 2.1.1 3.2v11.8c0 1.2-.1 2.3-.2 3.5 0 .6-.1 1.2-.1 1.7s-.1 1.1-.1 1.7-.1 1.1-.1 1.6c-.4 5-1.1 9.4-1.8 13.1-.1.3-.1.6-.2.9-64.4-8.9-89.7-60-103.2-90.3-11.7-26.2-26.9-20.4-37.9-40.2-9.2-16.5-1.2-29.7-16.1-47.4-13.9-16.5-37.1-19.4-37.1-19.4s41-30.5 94.1-62.8z" fill="#5b2448"/><path d="M69.1 1504.4c-.7-.6-1.3-1.3-1.9-2-.8-1.1-.6-2.6.5-3.3 1.1-.8 2.6-.6 3.3.5.1.2 7.7 9.8 29 10.9 1.8.1 3.6.2 5.3.2 15.6.6 25.1 1 42.7 16.4 1 .9 1.1 2.4.2 3.4s-2.4 1.1-3.4.2c-16.4-14.3-24.2-14.6-39.8-15.2-1.7-.1-3.4-.1-5.3-.2-17.7-1-26.9-7.5-30.6-10.9z" fill="#fff"/><path d="M173.3 1688.1c-21.3-19.9-32.6-45.1-40.1-61.9-6.2-13.8-13.5-18.6-20.6-23.3-6.1-4-12.4-8.2-17.6-17.5-4.1-7.4-5.1-14-6-20.5-1.3-8.5-2.4-16.6-10.6-26.3-13.2-15.7-34.5-18.4-34.7-18.4-1.1-.1-1.9-1.1-1.7-2.2.1-1.1 1.1-1.8 2.2-1.7.9.1 23.1 2.8 37.3 19.8 8.9 10.6 10.2 19.6 11.5 28.3.9 6.4 1.8 12.4 5.6 19.1 4.7 8.5 10.3 12.2 16.3 16.1 7.6 5 15.4 10.2 22 25 6.2 13.8 15.6 34.8 31.4 52.6 18.3 20.7 40.7 32.6 68.6 36.4 1.1.2 1.8 1.2 1.6 2.3s-1.2 1.8-2.3 1.6c-27.6-3.8-47.8-15.3-62.9-29.4z" fill="#5b2448"/><path d="M42.7 1572.3c-10.8-10.1-14.4-23.2-8.1-29.8s19.5-4 30.3 6.1 14.4 23.2 8.1 29.8c-6.2 6.7-19.5 4-30.3-6.1zm19.5-20.8c-8.8-8.3-20.1-11.1-24.7-6.3s-.9 15.9 7.9 24.2 20.1 11.1 24.7 6.3c4.5-4.9.9-15.9-7.9-24.2z" fill="#6d2a53"/><path d="M105 1648.9C54.8 1602 1.4 1549.2.6 1548.4s-.8-2 0-2.8l.2-.2c45-33.5 131.6-90 132.4-90.6.9-.6 2.2-.3 2.8.6s.3 2.2-.6 2.8-85 55.5-130.4 89.1c14.9 14.7 126.1 124 170.8 159.3 13.5 10.7 34 22.8 55.6 20.9 2.6-7.5 14.8-49.1-7.3-109-.2-.6-.4-1.2-.7-1.9-3.8-10.6-12.9-35.5-39.5-64.5-.8-.8-.7-2.1.1-2.8s2.1-.7 2.8.1l.1.1c27.2 29.6 36.4 55 40.3 65.9.2.7.5 1.3.7 1.9 23.4 63.5 9 107.1 7 112.4v.1c0 .1-.1.2-.1.3l-.1.1c-.3.7-.9 1.1-1.6 1.2-23.3 2.7-45.3-10.2-59.7-21.6-16.5-13.2-42-36.3-68.4-60.9z" fill="#5b2448"/><path d="M143.7 1586.5c-2.4-2.3-2.5-6-.3-8.5.6-.7 1.4-1.2 2.3-1.5 1.4-.5 35.6-12.6 70.7 7.6 2.9 1.6 3.8 5.3 2.2 8.2s-5.3 3.8-8.2 2.2c-30.1-17.3-60.3-6.8-60.6-6.7-2.1.7-4.5.2-6.1-1.3zm12.7 26.1c-2.4-2.3-2.5-6-.3-8.5.6-.7 1.4-1.2 2.3-1.5 1.4-.5 35-12.4 69.7 7.6 2.9 1.6 3.9 5.3 2.3 8.1s-5.3 3.9-8.1 2.3c0 0-.1 0-.1-.1-29.7-17.1-59.3-6.8-59.6-6.7-2.2.8-4.6.3-6.2-1.2zm17.1 27.5c-2.4-2.3-2.5-6-.3-8.5.7-.7 1.5-1.3 2.4-1.6 1.2-.4 31-10.1 62.3 8.4 2.8 1.7 3.8 5.4 2.1 8.2s-5.4 3.8-8.2 2.1c-26.4-15.7-52.1-7.5-52.3-7.4-2.1.8-4.4.2-6-1.2z" fill="#ffcf2d"/><path d="M302 1487c-26-12-78-55-97-87 13-12 32-31.7 42-38l7-7zm326 8c-28 20-112 18-135 17 3-22 6.8-55.4 9-67l-5.5-7.1z" fill="#9b3c82"/><path d="M332 629c-126 214 78 382-12.3 526.4-31.1 49.7-108.6 96-200.4 122.4 6.9-2.6 47.9-16.6 92.9 51.4 30.8 46.5 23 78 89.9 158.4 123-76 139.8-102 139.8-102s-76.4 77.1-90.6 132.7c10.5-27.4 67.5-58.4 148.8-37.1 65 17 97.8 21.9 127.8 13.9 0 0 49.4-103.5 70.3-275.3 26.4-216.2-50-425.5-60.1-519-7.3-68.5-238.9-132.4-306.1-71.8z" fill="#21a0aa"/><path d="M565 1165.2c20.8-94.4 9.4-183.1.3-254.3-4.3-33.4-8-62.3-8.2-87.8 0-1.1-.9-2-2-2s-2 .9-2 2c.2 25.7 3.9 54.7 8.2 88.3 9.1 70.9 20.4 159.1-.2 252.9-20.8 94.9-49.5 155.3-130 232.6-5.3 6.3-14.4 15.5-19.9 22.8 92.4-82.6 131.2-151.5 153.8-254.5zm-192-113.9c-1.1-.4-2.2.2-2.6 1.2-8.9 25.2-22 57.2-41.6 86.4-2.7 5.7-5.8 11.1-9.1 16.5-2.1 3.6-4.5 7.1-7.1 10.6 30.1-34.7 50-79.2 61.6-112.1.4-1.1-.2-2.2-1.2-2.6z" fill="#6ce0dc"/><path d="M643.6 734.8c-4.6 1.2-9.3 2.4-14 3.4-24.6 5.3-49.6 8.1-74.7 8.6-51.8 1.1-99-6.7-130.5-13.7-28.6-6.3-76.3-18.2-102.4-31.5 4.4-12.8 7-26.2 13.7-37.9 57.7 30.3 152.7 42.4 214.1 41.1h.5c24.4-.5 48.7-2.8 72.7-7 .7-.1 1.4-.3 2.2-.4 4.8-.9 9.4-1.9 13.7-2.9-.1-.1.5 14.2 4.7 40.3z" fill="#5b2448"/><path d="M629.7 738.2c-24.6 5.3-49.6 8.1-74.7 8.6l-4.8-42.1c24.4-.5 48.7-2.8 72.7-7 .7-.1 1.4-.3 2.2-.4z" fill="#ffcf2d"/><path d="M853.7 797.8c18.6 5 47.3 8.7 69.9 9.3 36.4.9 60.6-7.5 75.7-15.1 8.5-4.3 21-9.8 26.2-14.1 6-5-6.5-10.4-24.6-4.3 9.3-29.8 1.2-50.7-19.6-4.7 8.6-40.5-.7-46.8-22.4-6.5 5.9-34.5-5.8-26.1-26.5 10.6-5.6.2 36.5-7 30.2-8.8-30.6-8.3-59.5-23.2-111.7-64.2-22.4 15.8-96.9 34.5-116.5 55-.1 4.6 53.1 25.1 119.3 42.8z" fill="#f4ada2"/><path d="M476 228.4c-7.8 7.3-18.6 12.7-18.6 12.7L321.9 554.9s234.5 298.8 301.2 138.2c26.1 14 68.9 53.8 157.9 82.4 32.6-15.8 78.3-40.1 104.4-50.3-55.9-41-138.7-112.3-155.7-133.3C741 512 720 274 586 265z" fill="#66b0f0"/><path d="M644.5 23.9c-9.2-4.9-20.2-5.1-29.6-.5-9.4-33-52.9-28.3-59.4-3.5C526-3.7 488.3 29 500 56.8c4.3 10.2 11.3 31.4 6.3 48.4 14.5 7 41 43.5 41 43.5s65.6-61.8 90.8-68.8c31.5-8.7 25.9-45.1 6.4-56z" fill="#5b2448"/><path d="M597.2 38c-.4 1 .1 2.1 1.2 2.5 1 .3 2.1-.2 2.6-1.2 3.1-9.1 10.2-14.1 15.8-16.7-.6.3-1.3.5-1.9.8-.4-1.3-.8-2.5-1.3-3.7-6 3.1-13.1 8.6-16.4 18.3z" fill="#9b3c82"/><path d="M661.3 179.7c.7 9.1-4.1 18.5-13.6 23.8-24.8 13.9-57.4 6.3-57.4 6.3s-4.4 26.8-4.3 55.2c-2.3 12.8-5 28-10.3 41-29.3-9.7-84.8-42.5-102.1-75.5 0 0 22-19.7 39.6-61.7-17.5-2.4-44.6-20.7-40.3-44.4 2.5-13.5 16.8-24.6 30.8-20.5 13.6 3.9 18.8 12.1 29.8 24 10.2 11.1 13.2 4.9 20-8.5 5.5-10.6 13-20.2 22.1-28.1C591 78.3 619.4 78 638.2 80c0 14.3.9 28.5 2.8 42.6 3.1 24.8 18.6 35.9 20.3 57.1z" fill="#f4ada2"/><path d="M573 104.3v-1.5c0-.4.1-.9.1-1.3.1-.9.3-1.7.5-2.5.5-1.7 1.1-3.3 2-4.8 1.8-3.2 4.3-5.9 7.3-7.9 1.6-1.1 3.3-1.9 5.1-2.6 1.8-.6 3.8-1 5.7-1s3.8.2 5.6.8 3.4 1.5 4.8 2.7c1.8 1.6 1.9 4.4.3 6.1-.3.3-.7.6-1.1.9l-.7.4c-1.4.8-2.6 1.3-3.6 1.9-1.1.5-2 1-2.8 1.5-1.7.9-3.2 1.7-4.8 2.7-1.6.9-3.4 2.1-5.3 3.4l-3 2.1c-.5.4-1.1.7-1.6 1.1-1.3.9-2.7 1.5-4.3 1.6-.8.1-1.6 0-2.4-.3-1-.4-1.7-1.4-1.9-2.5.1-.3.1-.5.1-.8zm7.3 12.4c4.1-.9 14-2.7 23.1-7.3 1.3-.6 2.8-.1 3.5 1.1 1.7 3.3 3.4 9.2-3.3 11.5-8.2 2.9-21.3.3-24.1-3.3-.4-.6-.3-1.4.2-1.9.2 0 .4-.1.6-.1zm55.9-8.1c-4.1.5-7.2.2-14.8-.7-1.4-.2-2.7.8-2.9 2.2-.5 3.7 1.3 7.4 7.2 8.1 6.6.7 10.7-4.1 11.9-7.8.2-.7-.2-1.5-.9-1.7-.2-.1-.4-.1-.5-.1z" fill="#5b2448"/><path d="M525.9 171.5c1.1-.3 1.7-1.3 1.4-2.4s-1.3-1.7-2.4-1.4c-3.9 1-7.8 1.3-11.7 1.1-.5 1.3-1.1 2.6-1.7 3.8 4.8.5 9.7.1 14.4-1.1z" fill="#9b3c82"/><path d="M623.4 81.5c-1.4.9-2.6 2.1-3.6 3.5-1.2 1.8-.6 4.3 1.2 5.4.3.2.7.4 1.1.5l.7.2c1.4.4 2.5.5 3.6.8 1 .2 2 .4 2.8.6 1.7.4 3.2.8 4.8 1.2 1.4.3 2.9.8 4.6 1.4-.2-5.1-.4-10.1-.4-15.2-2.8-.3-5.9-.5-9.1-.7-.3.1-.7.1-1 .2-1.7.4-3.3 1.1-4.7 2.1zm-36.2 152.8c.2 0 .3.1.5.1 1.1-13.5 2.5-23.5 2.6-24.5-.3-.1-21.2-6.6-32-17.7-4.3 2.6-5.2 32 28.9 42.1z" fill="#5b2448"/><circle cx="571.8" cy="147.6" fill="#e57281" opacity=".52" transform="matrix(.314 -.9494 .9494 .314 252.1044 644.0731)" r="17.4"/><path d="M628.6 158.7c-1 1.2-2.4 2.2-3.8 2.9s-3 1.1-4.5 1.4c-3.2.5-6.4 0-9.4-1.3-1.5-.7-2.8-1.6-4-2.7s-2.2-2.3-3-3.7c-1.7-2.8-2.3-6-1.7-9.2.2-1 1.1-1.6 2.1-1.4.7.2 1.3.8 1.4 1.5v.1c.4 3.4 2.1 6.5 4.8 8.6.8.7 1.8 1.3 2.8 1.8 2.1.9 4.3 1.3 6.5 1.2 2.3 0 4.5-.6 6.4-1.8l.1-.1c.8-.5 1.9-.3 2.4.5.4.8.4 1.6-.1 2.2zM521 147.6c-.6-.2-1.1-.7-1.3-1.3-7.1-22.8-26-21.7-26.8-21.6-1.1.1-2-.7-2.1-1.8s.7-2 1.8-2.1c.2 0 22.8-1.5 30.9 24.4.3 1-.3 2.1-1.3 2.5-.4.1-.8 0-1.2-.1z" fill="#9b3c82"/><path d="M624 138.6c-.8-.3-1.3-1.2-1-2 .1-.3.3-.6.6-.8 3.3-2.2 4.9-4.1 5.1-5.5.2-1.7-1.5-3.5-4.2-6.4-7.6-8-5.8-13.8-5.7-14.1.3-.8 1.2-1.3 2-1 .8.3 1.3 1.2 1 2 0 .1-1.1 4.5 5 10.9 2.9 3.1 5.4 5.7 5 8.9-.3 2.5-2.3 4.9-6.4 7.8-.5.3-1 .4-1.4.2z" fill="#5b2448"/><path d="M836.9 687.7c-26.7 18.9-66.1 45.9-105.2 69.1 1.7.7 3.2 1.5 4.6 2 38.8-23.2 77.6-50 103.8-68.6-1-.8-2-1.7-3.2-2.5zm-291-316.1c.1 0 .1 0 0 0 12.8-.1 22.5-20.5 29-60.5.3-1.7.6-3.4.8-5.2-1.3-.4-2.5-.8-3.8-1.3-4.7 31.5-12.9 62.7-26 63-6.1.1-21.4-9.3-56.2-74-10.9-20.3-20.8-40.6-27.6-55.1-1.4.8-2.6 1.5-3.5 2 6.8 14.5 16.7 34.8 27.6 54.9 10.2 18.9 41 76.2 59.7 76.2z" fill="#b0dcf7"/><path d="M606.8 354.5c-.3.2-.5.3-1 .2-6.8-1.7-20.8-29.7-28.1-46.9-.4-1.1-1.6-1.5-2.6-1.1-1.1.4-1.5 1.6-1.1 2.6 2 4.7 19.9 46.4 30.8 49.2.5.1.9.2 1.4.2 1.1 0 2.2-.4 3-1 9.1-7.1 5.2-28.1.3-44.5-4.3-14.6-11.3-31.6-19.4-47.8-1.3-.2-2.7-.3-4.1-.4 0 0 .1-.5 0 0 19.4 38.1 31.6 81 20.8 89.5zm91.5 256.3c.4.4 1 .7 1.6.7.4 0 .8-.1 1.2-.4.1-.1 13.2-10.5 31.5-15.9-1.1-1.2-2.1-2.4-2.9-3.3-18 5.7-30.4 15.5-31.2 16-.8.8-.9 2-.2 2.9z" fill="#b0dcf7"/><path d="M575.9 306.3s-2.8 14.3-5.8 28.6c-3.2 15.1-6.7 20.2.3 28.8 0 0 2.7 4.3 17.6 3.5 17.7-1 19-7.1 19-7.1s4.6-9.7.8-19.9c-3.4-9.1-11.7-21.8-31.9-33.9z" fill="#f94f46"/><path d="M609.6 358c-9.6 6.8-30.8 10.4-42.6 4.8h-.1c-1-.5-2.2 0-2.7 1s0 2.2 1 2.7c1 .4 2 .9 3.1 1.2 13.4 4.4 33.7.6 43.7-6.3.9-.7 1.2-2 .5-2.9s-2-1.2-2.9-.5z" fill="#66b0f0"/><circle cx="847.1" cy="718.6" fill="#b0dcf7" r="6.5"/><path d="M575.9 306c20.2 12.1 28.5 25.1 31.9 34.2 3.8 10.2-.8 19.9-.8 19.9C642 426 661 599 633 693l-36.7 37.8c-3.7 2.5-8.5 2.8-12.5.8 0 0-44.5-23.1-50.8-37.6 71-182 37.4-330.3 37.4-330.3-7-8.6-3.5-13.7-.3-28.8 3-14.3 5.8-28.9 5.8-28.9z" fill="#f94f46"/><path d="M458 241c-21.4-21.8-125.9-18.9-244.3 100.4-94.2 95-87.1 185.6-72.7 229.3 31.7 96 174.3 150.1 254.5 176.2 26.1-32.6 55.9-80.2 69-105.3-35.4-29.8-70.8-73.6-113.7-107.2C491.5 471.9 491 278 458 241z" fill="#66b0f0"/><circle cx="491.1" cy="713.9" fill="#b0dcf7" r="6.5"/><path d="M853.7 797.8c18.6 5 47.3 8.7 69.9 9.3 36.4.9 60.6-7.5 75.7-15.1 8.5-4.3 21-9.8 26.2-14.1 6-5-6.5-10.4-24.6-4.3 9.3-29.8 1.2-50.7-19.6-4.7 8.6-40.5-.7-46.8-22.4-6.5 7.1-29.1-4.2-29-17.7-6.5-2.8 4.7-6.5 12.1-12.1 19.6-5.6.2-60.6 0-60.2 0-7.9 11.4-14.5 21.2-15.2 22.3z" fill="#f4ada2"/><path d="M971.5 790.1c-.7.9-.6 2.1.3 2.8.3.3.8.4 1.2.4.6 0 1.1-.2 1.6-.7 6.4-8 11-20.8 13.5-37.2 0-.1 0 .1 0 0-2.2 3.7-4.5 8.2-6.8 13.5.1-.3 0 0 0 0-2.2 8.2-5.1 15.4-9.8 21.2zm-12.6-27.7c0-.1 0-.1 0 0-.1.2-.2.5-.2.7-.4 1.2-.8 2.4-1.2 3.5-2.9 7.9-6.8 15.9-12 21.4-.7.8-.7 2 .1 2.8.4.3.9.5 1.4.5s1-.2 1.4-.6c6.3-6.6 10.7-16.3 13.9-25.4.1-.4.3-.8.4-1.2 1.8-5.5 3.1-10.8 4.1-15.1-2.6 3.8-5.1 8.3-7.9 13.4zm34.8 25.8c-.6.9-.4 2.2.5 2.8.3.3.7.4 1.1.4.7 0 1.3-.3 1.8-.9 3.4-4.9 6.3-11.5 8.8-18.3-1.6.4-3.3.8-5 1.4-2.2 5.5-4.5 10.7-7.2 14.6zm-53.5-31.5c-.7 1.3-2.7 4.7-3.6 6.2-1.4 2.9-2.9 5.7-4.5 8.3-1 1.5-2 2.9-3 4.2-3.2 3.9-6.7 6.7-10.4 7.3-1.1.2-1.9 1.2-1.7 2.3.2 1 1 1.7 2 1.7.1 0 .2 0 .3-.1 7.3-1.1 13.4-8.1 18-16.3 2.2-3.9 4.1-8 5.7-11.9 1.5-3.7 2.7-7.7 3.7-10.6-.7.7-6.1 8.4-6.5 8.9z" fill="#9b3c82"/><path d="M599.6 793.5c.9 7.5-14.9 10.3-27 3.7-8.4 18.6-95.1-19.6-100.3-21.3-6.5-2.6-13.1-5.3-19.9-8.1-.4-.2-.8-.3-1.3-.5-2.7-1.1-5.5-2.3-8.3-3.4-3.2-1.3-6.5-2.7-10-4-9.4-3.6-19.5-7.2-30.1-10.7-9.8-3.3-20.1-6.5-30.7-9.8-.4-.1-.8-.3-1.2-.4-54.7-16.9-116.6-57.6-163.6-100.3-40.1-36.4-45.4-85.7-12.1-108.1 33.3-22.5 24.4-16.5 68.9-18.4 1.6.7 3.2 1.4 4.7 2.1.2.1.4.2.5.3C324 539.6 383.6 583 434 619.8c18 13.1 34.9 25.4 49.9 35.7 3.8 2.6 7.4 5 10.9 7.3C531 689.1 575 693 629.5 681.6c40.1-8.4 34.9 6.5-.9 28.9-44.7 28 33.6 55 23.3 72.7-1.7 2.9-9.3 7.5-24.2 2.8 1.8 7.5-11.3 14.9-28.1 7.5z" fill="#f4ada2"/><path d="M465.8 249.7C451 219 321.1 201.9 189.2 290.6c-180.8 121.6-186 229-151 291 64.9 114.9 267 143 357.3 165.3 28.1-28.6 53.1-75.6 69-105.3C421.3 594.5 367.2 561 332 531c89.7-72.5 153.2-209.4 133.8-281.3z" fill="#66b0f0"/><path d="m476.8 793.8-25.5-17.6-9.9-6.9-12.6-8.7c5.7-8.2 11.2-17 16.4-26l5.4-9.6c14-25.8 25.7-45.3 32.9-70.2 15 9.8 34.5 19.9 50.4 27.1-7.7 21.8-17.8 44-28.5 64.4-1.4 2.7-2.9 5.5-4.4 8.2-4.6 8.3-9.4 16.5-14.4 24.4-1.1 1.7-2.2 3.5-3.3 5.2-.6 1-1.3 2-1.9 2.9-1.5 2.3-3 4.6-4.6 6.8z" fill="#5b2448"/><ellipse cx="466.7" cy="762" fill="#5b2448" rx="35.2" ry="50.4" transform="matrix(.3349 -.9422 .9422 .3349 -407.6572 946.5235)"/><path d="M479.9 724.9c-9.1-3.2-18.3-4.6-26.9-4.3-.7 1.4-1.5 2.8-2.3 4.2 8.7-.7 18.4.6 28 3.9 10.7 3.9 20 9.8 26.8 17.2.6-1.2 1.3-2.4 1.9-3.6-7.1-7.5-16.6-13.5-27.5-17.4z" fill="#fff"/><ellipse cx="464.9" cy="767.2" fill="#fff" rx="30.2" ry="48.9" transform="matrix(.3349 -.9422 .9422 .3349 -413.7311 948.3189)"/><path d="M462.4 771.9c-.7-.6-.9-1.5-.6-2.3l6.9-17.4c.4-1.1 1.7-1.6 2.7-1.1 1 .4 1.5 1.6 1.1 2.7l-6.1 15.4 25.4 9.5c1.1.4 1.6 1.6 1.2 2.7s-1.6 1.6-2.7 1.2L463 772.3c-.2-.1-.5-.2-.6-.4z" fill="#5b2448"/><g fill="#b0dcf7"><path d="M416.3 377.5C380.2 424.4 326.5 473 261 517.9c-.9.6-1.1 1.9-.5 2.8.4.6 1.1.9 1.7.9.4 0 .8-.1 1.2-.4 65.8-45.2 119.8-94 156.2-141.3 16.6-21.5 29.2-42.3 37.7-61.8 8.1-18.9 12.2-36.1 12-51.2-.2-10.9-2.6-20.5-7.1-28.5-1.5.9-2.7 1.6-3.5 2 4.2 7.4 6.5 16.4 6.6 26.6.2 29.9-17.1 69.1-49 110.5zm4.1 235.5c-.9-.7-2.1-.5-2.8.4-.5.7-47.3 64.1-94.6 117.2 1.5.4 2.9.7 4.4 1 46.9-53 92.9-115.1 93.4-115.8.7-.9.5-2.1-.4-2.8z"/><path d="M263.4 518.2c-34.4-8.4-79.2-5.1-79.6-5.1-1.1 0-1.9 1-1.8 2.1 0 1.1 1 1.9 2.1 1.8.5-.1 44.6-3.3 78.4 4.9.2.1.3.1.5.1.9 0 1.7-.6 1.9-1.4.2-1.1-.4-2.1-1.5-2.4z"/><path d="m465.5 639.8-202.3-122c-.9-.6-2.1-.2-2.7.7s-.2 2.1.7 2.7l202.3 122c.3.2.6.3 1 .3.7 0 1.3-.3 1.7-1 .6-.9.2-2.1-.7-2.7z"/><circle cx="429.1" cy="661.1" r="6.5"/></g><path d="M595.3 765.2c-.7.8-.7 2 .1 2.8.8.7 13.6 12.6 31.8 22.2.6-1.3.8-2.7.4-4.1l.9.3c-17.7-9.5-30.2-21.1-30.4-21.3-.8-.7-2-.7-2.8.1zm-22.2 11.1c-.8.8-.8 2 0 2.8 5.4 5.4 14.5 12.3 25.4 18 .8-1 1.3-2.2 1.1-3.6.8.3 1.5.6 2.3.9-11.1-5.6-20.5-12.7-26-18.1-.8-.8-2-.8-2.8 0zm-18 11.3c-.6.9-.5 2.1.4 2.8 5 3.8 9.6 7 14.3 9.8 1.2-.8 2.2-1.8 2.8-3 .6.3 1.1.6 1.7.9-5.6-3-10.7-6.6-16.4-10.9-.9-.6-2.1-.5-2.8.4z" fill="#9b3c82"/><path d="M568.3 367.7c-1.1-.3-2.1-.8-3.1-1.2-1-.5-1.5-1.7-1-2.7s1.7-1.5 2.7-1h.1c11.8 5.6 33 2 42.6-4.8.9-.7 2.2-.4 2.9.5s.4 2.2-.5 2.9c-10 6.9-30.3 10.7-43.7 6.3z" fill="#66b0f0"/></svg></g><g transform="translate(567.0 123.0) rotate(0.0 215.5 426.5) scale(0.4545933973209577 0.4552975713904457)"><svg width="948.1" height="1873.5" viewBox="0 0 948.1 1873.5"><path d="M140.8 0h666.5c77.8 0 140.8 63.1 140.8 140.8v1591.8c0 77.8-63.1 140.8-140.8 140.8H140.8c-77.7.1-140.8-63-140.8-140.7V140.8C0 63.1 63.1 0 140.8 0z" fill="#9b3c82"/><path d="M157.6 78.7h632.9c42.8 0 77.4 34.7 77.4 77.4v1561.3c0 42.8-34.7 77.4-77.4 77.4H157.6c-42.8 0-77.4-34.7-77.4-77.4V156.1c0-42.8 34.6-77.4 77.4-77.4z" fill="#fff"/><path d="M470.9 58.6H311.6V76s35.8 0 39.3 35.2l2.6 19.8c2.8 21 12.6 36.8 41.9 36.8H545c29.3 0 39.2-15.7 41.9-36.8l2.6-19.8C593 76 628.8 76 628.8 76V58.6z" fill="#9b3c82"/><path d="M798.4 263.9c0 18.4-8.7 34.8-22.2 45.3-9.7 7.6-22 12.1-35.3 12.1s-25.6-4.5-35.3-12.1c-13.5-10.5-22.1-26.9-22.1-45.3 0-31.7 25.7-57.4 57.4-57.4s57.5 25.7 57.5 57.4z" fill="#76b8f4"/><path d="M766.1 286.9c.3.8.1 1.7-.5 2.4-.8.8-1.7 1.6-2.7 2.3-6.2 4.8-13.6 7.4-21.5 7.4s-15.3-2.6-21.5-7.4c-1-.8-1.9-1.5-2.8-2.4-.6-.6-.8-1.5-.6-2.3 1.6-4.4 4.2-8.5 7.1-11.7.4-.4.9-.4 1.4-.1 4.6 3.1 10.1 4.9 16 4.9 6.1 0 11.8-1.9 16.4-5.2.5-.3 1.1-.3 1.4.2 3 3.2 5.6 7.5 7.3 11.9zm-5.9-37.6c1.2 12.1-8.9 22.2-21 21-9-.9-16.2-8.1-17.1-17.1-1.2-12.1 8.9-22.2 21-21 9 .9 16.2 8.2 17.1 17.1z" fill="#fff"/><path d="M646 683c-1.9-38.8-12.3-74.4-29.8-102.7-20.1-32.5-59.5-71.5-133.4-76.1v-.4h-23.2v.4c-73.9 4.7-113.2 43.6-133.4 76.1-17.3 28-27.6 62.9-29.8 101.2v5.5c0 3.3 0 8-.1 13.6 0 11.3-.1 26.3-.1 41.3v68.2l60-5.3v-6.9c0-43.8.1-109.8.2-115.3v-.2c1.8-27.1 9-51.5 20.8-70.5 19.3-31.2 51-47.4 94-48.2 43 .8 74.7 17 94 48.2 12.1 19.6 19.4 44.8 21 72.9v124.7l60 17.3v-10c-.1-112.2-.1-130.3-.2-133.8z" fill="#ffcf2d"/><path d="M472.1 1277.3c-155.7 0-282-126.3-282-282V829.6c0-53.1 43.1-96.2 96.2-96.2h371.6c53.1 0 96.2 43.1 96.2 96.2v165.8c0 155.7-126.2 281.9-282 281.9z" fill="#21a0aa"/><path d="M537 921.1c0-37.1-31-66.9-68.5-64.9-33.5 1.8-60.4 29.3-61.4 62.8-.9 29.2 17.5 54.3 43.5 63.4l-39.2 131c-2 6.7 3 13.5 10 13.5h101.4c7 0 12-6.8 10-13.5l-39.2-131c25.2-8.8 43.4-32.9 43.4-61.3z" fill="#5b2448"/><g fill="#ffcf2d"><path d="M701.6 1526.3h-18l12.9-12.9-7.7-7.7-12.8 12.8v-18.3h-10.9v18.4l-12.9-12.9-7.7 7.7 13 12.9H639v10.9h18.3l-12.8 12.8 7.7 7.6 12.9-12.8v18H676v-18l12.8 12.8 7.7-7.7-12.7-12.7h17.8zm-395.6 0h-18l12.9-12.9-7.7-7.7-12.8 12.8v-18.3h-10.9v18.4l-12.9-12.9-7.7 7.7 13 12.9h-18.5v10.9h18.3l-12.8 12.7 7.7 7.7 12.9-12.8v18h10.9v-18l12.8 12.8 7.7-7.7-12.7-12.7H306zm197.8 0h-18l12.9-12.9-7.7-7.7-12.8 12.8v-18.3h-10.9v18.4l-12.9-12.9-7.7 7.7 13 12.9h-18.5v10.9h18.3l-12.8 12.8 7.7 7.6 12.9-12.8v18h10.9v-18l12.8 12.8 7.7-7.7-12.7-12.7h17.8zm-98.9 0h-18l12.9-12.9-7.7-7.7-12.8 12.8v-18.3h-10.9v18.4l-12.9-12.9-7.7 7.7 13 12.9h-18.5v10.9h18.3l-12.8 12.7 7.7 7.7 12.9-12.8v18h10.9v-18l12.8 12.8 7.7-7.7-12.7-12.7h17.8zm197.8 0h-18l12.9-12.9-7.7-7.7-12.8 12.8v-18.3h-10.9v18.4l-12.9-12.9-7.7 7.7 13 12.9h-18.5v10.9h18.3l-12.8 12.8 7.7 7.6 12.9-12.8v18h10.9v-18l12.8 12.8 7.7-7.7-12.7-12.7h17.8z"/></g><path d="M725.2 1599.3H222c-17.9 0-32.4-14.5-32.4-32.4v-66.2c0-17.9 14.5-32.4 32.4-32.4h503.2c17.9 0 32.4 14.5 32.4 32.4v66.2c0 17.9-14.5 32.4-32.4 32.4zm-503.2-127c-15.6 0-28.4 12.7-28.4 28.4v66.2c0 15.6 12.7 28.4 28.4 28.4h503.2c15.6 0 28.4-12.7 28.4-28.4v-66.2c0-15.6-12.7-28.4-28.4-28.4zm22.6-1241.9h-88c-3.6 0-6.5-2.9-6.5-6.5s2.9-6.5 6.5-6.5h88c3.6 0 6.5 2.9 6.5 6.5s-2.9 6.5-6.5 6.5zm0 39h-88c-3.6 0-6.5-2.9-6.5-6.5s2.9-6.5 6.5-6.5h88c3.6 0 6.5 2.9 6.5 6.5s-2.9 6.5-6.5 6.5zm0 39h-88c-3.6 0-6.5-2.9-6.5-6.5s2.9-6.5 6.5-6.5h88c3.6 0 6.5 2.9 6.5 6.5s-2.9 6.5-6.5 6.5z" fill="#76b8f4"/></svg></g><g transform="translate(84.0 432.0) rotate(0.0 322.5 87.5) scale(0.45686357841053976 0.45691906005221933)"><svg width="1411.8" height="383" viewBox="0 0 1411.8 383"><path d="M1402.5 147.9h-52.2c-.5 0-1 0-1.5.1H378C358.3 63.2 282.3 0 191.5 0 85.7 0 0 85.7 0 191.5S85.7 383 191.5 383c90.4 0 166.2-62.7 186.3-147h825.1c5 0 9.1 4 9.1 9.1v92.6c0 5.1 4.2 9.3 9.3 9.3h45.4c5.2 0 9.3-4.2 9.3-9.3v-92.6c0-5 4.1-9.1 9.1-9.1h17.9c5 0 9.1 4 9.1 9.1v92.6c0 5.1 4.2 9.3 9.3 9.3h45.4c5.2 0 9.3-4.2 9.3-9.3V202.9h26.5c5.2 0 9.4-4.2 9.4-9.4v-36.2c-.2-5.2-4.4-9.4-9.5-9.4zM191.5 286c-52.2 0-94.5-42.3-94.5-94.5S139.3 97 191.5 97s94.5 42.3 94.5 94.5-42.3 94.5-94.5 94.5z" fill="#ffcf2d"/></svg></g><g transform="translate(453.0 520.0) rotate(0.0 57.0 17.0) scale(0.46060606060606063 0.4722222222222222)"><svg width="247.5" height="72" viewBox="0 0 247.5 72"><path d="M246 42.7c-5.2 4.3-17.7 9.8-26.2 14.1-15.2 7.7-39.4 16.1-75.7 15.1-22.6-.6-51.3-4.3-69.9-9.3C46.1 55.1 19.4 49.4 0 40h149.9c5.5-7.5 10.4-15.5 14.8-23.7 6.6-8.6 11.9-12.6 14.8-11.1 2.7 1.4 3.2 7.4.9 18.6l-.3 1.2c-.1.4-.2.7-.2 1.1s-.2.8-.3 1.1c21.7-40.3 31-33.9 22.4 6.5 20.7-46 28.9-25.2 19.6 4.7 14.7-4.9 25.7-2.3 26.1 1.5-.2 1.2-.7 2.2-1.7 2.8z" fill="#f4ada2"/><g fill="#9b3c82"><path d="M192.3 57.7c.3.3.8.4 1.2.4.6 0 1.2-.2 1.5-.8 7.8-9.7 11.7-24.7 13.6-37.1-2.1 3.6-4.3 8.1-6.8 13.5.2-.7.3-1.4.4-2.1-2.1 8.6-5.4 17.2-10.2 23.3-.7.9-.6 2.1.3 2.8zM166 55.8c.4.3.9.5 1.4.5s1.1-.3 1.4-.6c10.3-11 15.8-30.1 18.3-41.7-2.3 3.6-4.9 8-7.7 13.1-3 9.3-7.4 19.3-13.6 25.9-.6.8-.6 2 .2 2.8zm48.8.1c.3.3.7.4 1.1.4.6 0 1.2-.4 1.8-.9 3.4-4.9 6.3-11.6 8.8-18.5-1.6.4-3.2.8-4.9 1.4-2.1 5.6-4.6 10.8-7.3 14.8-.6.9-.4 2.2.5 2.8zm-75.7-8.3c-1.1.2-1.9 1.2-1.7 2.3.2 1 1 1.7 2 1.7.1 0 .2 0 .3-.1 14.2-2.2 23.7-26.5 27.6-39-1.8 2.3-3.6 5-5.6 8.2-2.8 4.7-6.5 12.1-12.1 19.6h-.1c-3.1 3.9-6.6 6.7-10.4 7.3z"/></g></svg></g><g transform="translate(105.0 285.0) rotate(0.0 147.5 136.5) scale(0.4621651261162463 0.4608372721134369)"><svg width="638.3" height="592.4" viewBox="0 0 638.3 592.4"><circle cx="469.9" cy="492.2" fill="#b0dcf7" r="6.5"/><path d="M578.5 571.8c.9 7.5-14.9 10.3-27 3.7-8.4 18.6-95.1-19.6-100.3-21.3-6.5-2.6-13.1-5.3-19.9-8.1-.4-.2-.8-.3-1.3-.5-2.7-1.1-5.5-2.3-8.3-3.4-3.2-1.3-6.5-2.7-10-4-9.4-3.6-19.5-7.2-30.1-10.7-9.8-3.3-20.1-6.5-30.7-9.8-.4-.1-.8-.3-1.2-.4C295 500.5 233.1 459.7 186.1 417c-40.1-36.4-45.4-85.7-12.1-108.1 33.3-22.5-13.5-34.3 30.9-36.3 1.6.7 41.1 19.3 42.7 20 .2.1-20.9-2.1-20.7-2 49 26 134 83 186 110.4 18 13.1 34.9 22.4 49.9 32.7 3.8 2.6 7.4 5 10.9 7.3 36.2 26.4 80.2 30.3 134.6 18.9 40.1-8.4 34.9 6.5-.9 28.9-44.7 28 33.6 55 23.3 72.7-1.7 2.9-9.3 7.5-24.2 2.8 1.8 7.5-11.3 14.9-28 7.5z" fill="#f4ada2"/><path d="M444.6 28C429.9-2.7 300-19.8 168 68.9c-180.8 121.6-186 229-151 291 64.9 114.9 267 143 357.3 165.3 28.1-28.6 53.1-75.6 69-105.3-38.5-28.2-168.5-98.2-201.5-121.2C353.9 221.6 464 99.9 444.6 28z" fill="#66b0f0"/><path d="m455.7 572.1-25.5-17.6-9.9-6.9-12.6-8.7c5.7-8.2 11.2-17 16.4-26l5.4-9.6c14-25.8 25.6-45 32.8-69.9 15 9.8 34.6 19.6 50.5 26.8-7.7 21.8-17.8 44-28.5 64.4-1.4 2.7-2.9 5.5-4.4 8.2-4.6 8.3-9.4 16.5-14.4 24.4-1.1 1.7-2.2 3.5-3.3 5.2-.6 1-1.3 2-1.9 2.9-1.6 2.3-3.1 4.5-4.6 6.8z" fill="#5b2448"/><ellipse cx="445.6" cy="540.3" fill="#5b2448" rx="35.2" ry="50.4" transform="matrix(.3349 -.9422 .9422 .3349 -212.7915 779.2156)"/><path d="M458.8 503.2c-9.2-3.3-18.4-4.6-27-4.3-.8 1.4-1.5 2.8-2.3 4.2 8.7-.6 18.3.6 27.8 4 10.8 3.8 20.1 9.9 26.9 17.3.7-1.3 1.4-2.6 2-3.9-7-7.4-16.5-13.4-27.4-17.3z" fill="#fff"/><ellipse cx="443.8" cy="545.5" fill="#fff" rx="30.2" ry="48.9" transform="matrix(.3349 -.9422 .9422 .3349 -218.8529 780.9785)"/><path d="M441.2 550.2c-.7-.6-.9-1.5-.6-2.3l6.9-17.4c.4-1.1 1.7-1.6 2.7-1.1 1 .4 1.5 1.6 1.1 2.7l-6.1 15.4 25.4 9.5c1.1.4 1.6 1.6 1.2 2.7s-1.6 1.6-2.7 1.2l-27.4-10.2c-.1-.2-.3-.4-.5-.5z" fill="#5b2448"/><g fill="#b0dcf7"><path d="M395.2 155.8c-36.1 46.9-89.8 95.5-155.3 140.4-.9.6-1.1 1.9-.5 2.8.4.6 1 .9 1.7.9.4 0 .8-.1 1.1-.4 65.8-45.2 119.8-94 156.2-141.3 16.5-21.5 29.2-42.3 37.7-61.8 8.2-18.9 12.2-36.1 12-51.2-.1-5-.6-9.7-1.6-14.2-2.6-5.5-5.3-9.2-8.2-11 3.7 7.2 5.7 15.6 5.8 25.2.3 30-17 69.2-48.9 110.6zm4 235.5c-.9-.7-2.1-.5-2.8.4-.5.7-47.4 64.2-94.7 117.3 1.5.4 2.9.8 4.4 1.1 46.9-53 93-115.4 93.5-116 .7-.9.5-2.2-.4-2.8z"/><path d="M242.3 296.4c-34.4-8.4-79.2-5.1-79.6-5.1-1.1.1-1.9 1-1.8 2.1s1 1.9 2.1 1.8c.4 0 44.6-3.3 78.4 4.9.2 0 .3.1.5.1.9 0 1.7-.6 1.9-1.5.3-1-.4-2.1-1.5-2.3z"/><path d="M444.3 418.1 242 296.2c-.9-.6-2.2-.3-2.7.7-.6.9-.3 2.2.7 2.7l202.3 122c.3.2.7.3 1 .3.7 0 1.3-.3 1.7-1 .6-1 .3-2.2-.7-2.8z"/><circle cx="407.9" cy="439.4" r="6.5"/></g><path d="M574.2 543.4c-.8.8-.7 2.1.1 2.8s13.5 12.6 31.7 22.2c.6-1.3.9-2.7.5-4.1.4.1-17.4-10-29.5-21-.8-.8-2-.7-2.8.1zm-22.3 11.1c-.8.8-.8 2 0 2.8 5.4 5.4 14.7 12.4 25.6 18.1.8-.9 1.2-2.2 1-3.6.9.4-14.2-7.7-23.8-17.3-.8-.8-2-.8-2.8 0zM534 565.9c-.7.9-.5 2.1.4 2.8 5 3.8 9.5 7.1 14.3 9.9 1.3-.8 2.3-1.9 2.8-3.1.5.3-9.1-5.6-14.8-9.9-.8-.8-2-.6-2.7.3z" fill="#9b3c82"/></svg></g></svg>